# xmcd CD database file
#
# Track frame offsets:
#	150
#	13757
#	20489
#	35900
#	56441
#	73510
#	93143
#	115582
#	135366
#	149828
#	169413
#	185947
#	200528
#	220098
#	237935
#	255112
#	276824
#	302015
#	320195
#
# Disc length: 4567 seconds
#
# Revision: 1
# Processed by: cddbd v1.5.2PL0 Copyright (c) Steve Scherf et al.
# Submitted via: CDex 1.70beta2
#
DISCID=1a11d513
DTITLE=小島麻由美 - a musical biography KOJIMA MAYUMI 2001-2007
DYEAR=2007
DGENRE=Blues
TTITLE0=甘い恋 (Single Version)
TTITLE1=DOO-BEE-DOO-GOO
TTITLE2=ポルターガイスト
TTITLE3=眩暈
TTITLE4=黒い革のブルース
TTITLE5=ロックステディガール (Single Version)
TTITLE6=愛しのキッズ
TTITLE7=刺青
TTITLE8=砂漠の向こう (Single Version)
TTITLE9=もしも自由が欲しいなら (Alternate Mix)
TTITLE10=ハートに火をつけて
TTITLE11=蛇むすめ
TTITLE12=トルココーヒー (Alternate Mix)
TTITLE13=ラストショット！
TTITLE14=赤い帽子 (Alternate Mix)
TTITLE15=サマータイム
TTITLE16=黒猫 (New Version 2007)
TTITLE17=ひまわり (New Version 2007)
TTITLE18=シークレット・ムーンライト
EXTD=YEAR: 2007
EXTT0=
EXTT1=
EXTT2=
EXTT3=
EXTT4=
EXTT5=
EXTT6=
EXTT7=
EXTT8=
EXTT9=
EXTT10=
EXTT11=
EXTT12=
EXTT13=
EXTT14=
EXTT15=
EXTT16=
EXTT17=
EXTT18=
PLAYORDER=
